HIERARCHY
ROOT pelvis
{
	OFFSET 0.000000 0.000000 0.676533
	CHANNELS 6 Xposition Yposition Zposition Xrotation Yrotation Zrotation
	JOINT spine
	{
		OFFSET 0.000000 0.000000 0.000000
		CHANNELS 6 Xposition Yposition Zposition Xrotation Yrotation Zrotation
		JOINT spine.001
		{
			OFFSET 0.000000 -0.012583 0.240098
			CHANNELS 3 Xrotation Yrotation Zrotation
			JOINT neck
			{
				OFFSET 0.000000 0.029301 0.238635
				CHANNELS 6 Xposition Yposition Zposition Xrotation Yrotation Zrotation
				JOINT face
				{
					OFFSET 0.000000 0.003110 0.178174
					CHANNELS 6 Xposition Yposition Zposition Xrotation Yrotation Zrotation
					End Site
					{
						OFFSET 0.000000 -0.022528 -0.007061
					}
				}
			}
			JOINT shoulder.L
			{
				OFFSET 0.000000 0.029301 0.238635
				CHANNELS 6 Xposition Yposition Zposition Yrotation Xrotation Zrotation
				JOINT upper_arm.L
				{
					OFFSET 0.144247 0.000000 0.000000
					CHANNELS 6 Xposition Yposition Zposition Xrotation Yrotation Zrotation
					JOINT forearm.L
					{
						OFFSET 0.241736 0.000104 0.000864
						CHANNELS 6 Xposition Yposition Zposition Xrotation Yrotation Zrotation
						End Site
						{
							OFFSET 0.220586 -0.003755 -0.001191
						}
					}
				}
			}
			JOINT shoulder.R
			{
				OFFSET 0.000000 0.029301 0.238635
				CHANNELS 6 Xposition Yposition Zposition Yrotation Xrotation Zrotation
				JOINT upper_arm.R
				{
					OFFSET -0.144247 0.000000 0.000000
					CHANNELS 6 Xposition Yposition Zposition Xrotation Yrotation Zrotation
					JOINT forearm.R
					{
						OFFSET -0.240681 0.000104 0.000864
						CHANNELS 6 Xposition Yposition Zposition Xrotation Yrotation Zrotation
						End Site
						{
							OFFSET -0.216173 -0.003678 -0.001191
						}
					}
				}
			}
		}
	}
	JOINT pelvis.L
	{
		OFFSET 0.000000 0.000000 0.000000
		CHANNELS 6 Xposition Yposition Zposition Yrotation Xrotation Zrotation
		End Site
		{
			OFFSET 0.090690 0.000000 0.000000
		}
	}
	JOINT pelvis.R
	{
		OFFSET 0.000000 0.000000 0.000000
		CHANNELS 6 Xposition Yposition Zposition Yrotation Xrotation Zrotation
		End Site
		{
			OFFSET -0.090690 0.000000 0.000000
		}
	}
	JOINT thigh.L
	{
		OFFSET 0.090690 0.000000 0.000000
		CHANNELS 6 Xposition Yposition Zposition Xrotation Yrotation Zrotation
		JOINT shin.L
		{
			OFFSET 0.016922 0.000000 -0.322884
			CHANNELS 6 Xposition Yposition Zposition Xrotation Yrotation Zrotation
			JOINT foot.L
			{
				OFFSET 0.015376 0.000000 -0.293391
				CHANNELS 3 Xrotation Yrotation Zrotation
				End Site
				{
					OFFSET 0.013618 -0.138845 -0.058304
				}
			}
			JOINT heel.02.L
			{
				OFFSET 0.015376 0.000000 -0.293391
				CHANNELS 3 Xrotation Yrotation Zrotation
				End Site
				{
					OFFSET 0.073445 0.031072 -0.055646
				}
			}
		}
	}
	JOINT thigh.R
	{
		OFFSET -0.090690 0.000000 0.000000
		CHANNELS 6 Xposition Yposition Zposition Xrotation Yrotation Zrotation
		JOINT shin.R
		{
			OFFSET -0.017084 0.000000 -0.325982
			CHANNELS 6 Xposition Yposition Zposition Xrotation Yrotation Zrotation
			JOINT foot.R
			{
				OFFSET -0.015190 0.000000 -0.289837
				CHANNELS 3 Xrotation Yrotation Zrotation
				End Site
				{
					OFFSET -0.013876 -0.141485 -0.059412
				}
			}
			JOINT heel.02.R
			{
				OFFSET -0.015190 0.000000 -0.289837
				CHANNELS 3 Xrotation Yrotation Zrotation
				End Site
				{
					OFFSET -0.068588 0.031072 -0.056358
				}
			}
		}
	}
}
MOTION
Frames: 9
Frame Time: 0.041667
0.065907 -0.025015 0.674750 -0.000000 0.000000 -5.431572 0.000000 0.000000 0.000000 -7.329312 3.565942 0.416805 9.987716 -0.415041 -3.382298 -0.000000 0.029301 0.238635 17.453625 0.453805 3.977251 -0.000000 0.003110 0.178174 2.041330 0.000000 -0.000003 -0.000000 0.029301 0.238636 -1.418237 0.002153 0.173997 0.144247 -0.000000 0.000000 13.855986 80.997711 -16.225956 0.241736 0.000104 0.000864 3.351129 14.003006 -25.927132 -0.000000 0.029301 0.238636 -1.364870 0.001996 0.167480 -0.144246 0.000000 0.000000 7.432795 -80.012367 8.889222 -0.240681 0.000104 0.000864 3.258518 -14.375631 24.488346 0.000000 -0.000000 0.000000 2.013879 0.000001 -0.000050 0.000000 -0.000000 0.000000 2.013917 -0.000000 0.000000 0.090634 0.000000 -0.003187 4.761444 7.391087 -0.058231 0.016922 0.000000 -0.322884 -1.701506 3.994388 -0.029896 -6.914560 -5.682477 9.999049 -17.059039 47.447996 37.263589 -0.090634 -0.000000 0.003187 -3.337519 1.565449 0.220414 -0.017084 -0.000000 -0.325982 15.706365 -6.257626 0.035738 -6.863326 11.165408 -20.702399 -24.396445 -50.560257 -35.982208 
0.065190 -0.024066 0.674917 -0.000000 0.000000 -5.493579 -0.000000 0.000000 -0.000000 -7.199484 3.596046 0.416195 9.988802 -0.396541 -3.231430 0.000000 0.029301 0.238635 17.319656 0.472000 3.827393 0.000000 0.003110 0.178174 2.017088 -0.000001 -0.000002 0.000000 0.029301 0.238636 -1.511575 0.002446 0.185541 0.144247 0.000000 0.000000 17.241834 80.658339 -20.277044 0.241736 0.000104 0.000864 3.164515 13.826214 -24.768940 -0.000000 0.029301 0.238636 -1.458116 0.002277 0.178975 -0.144247 0.000000 -0.000000 5.987766 -79.093106 7.288118 -0.240681 0.000104 0.000864 3.673528 -15.526183 25.500279 -0.000000 -0.000000 0.000000 1.910827 -0.000000 -0.000003 -0.000000 -0.000000 0.000000 1.910828 -0.000000 0.000000 0.090640 0.000000 -0.003024 4.590825 7.316602 -0.053131 0.016922 0.000000 -0.322884 -1.539793 4.078012 -0.025926 -6.013268 -6.008289 11.043967 -17.474435 47.730557 37.525353 -0.090640 -0.000000 0.003024 -3.770477 1.349313 0.241939 -0.017084 0.000000 -0.325982 16.475352 -6.051154 0.007446 -7.542346 11.000969 -19.963408 -25.465223 -50.962511 -35.809637 
0.064168 -0.023073 0.675029 -0.000000 0.000000 -5.593759 -0.000000 -0.000000 0.000000 -7.069181 3.653171 0.418600 9.989902 -0.376176 -3.065403 -0.000000 0.029301 0.238635 17.288636 0.533492 3.794089 -0.000000 0.003110 0.178174 1.919573 -0.000001 -0.000003 -0.000000 0.029301 0.238636 -1.583446 0.002687 0.194439 0.144247 -0.000000 0.000000 19.964546 80.373110 -23.562898 0.241736 0.000104 0.000864 2.894053 13.349024 -23.446988 -0.000000 0.029301 0.238636 -1.529988 0.002507 0.187851 -0.144246 0.000000 -0.000000 4.799203 -78.317387 5.932045 -0.240681 0.000104 0.000864 4.082409 -16.586879 26.471213 -0.000000 -0.000000 0.000000 1.861696 -0.000001 0.000032 -0.000000 -0.000000 0.000000 1.861697 -0.000000 0.000000 0.090642 0.000000 -0.002946 4.521077 7.268765 -0.050420 0.016922 0.000000 -0.322884 -1.604655 4.035675 -0.027614 -5.482206 -6.203206 11.682534 -17.825407 48.078443 38.181751 -0.090642 -0.000000 0.002946 -4.268838 1.206947 0.268660 -0.017084 0.000000 -0.325982 17.389197 -6.069267 0.010652 -7.803290 10.790405 -19.406827 -26.067344 -51.151925 -35.551152 
0.062746 -0.021976 0.675167 -0.000000 0.000000 -5.709381 -0.000000 0.000000 0.000000 -6.937334 3.750342 0.425370 9.990541 -0.365214 -2.975586 0.000000 0.029301 0.238635 17.371504 0.653722 3.977554 0.000000 0.003110 0.178174 1.756824 -0.000000 0.000001 0.000000 0.029301 0.238635 -1.614165 0.002789 0.198107 0.144247 0.000000 0.000000 21.878626 80.192158 -25.876189 0.241736 0.000104 0.000864 2.529169 12.478481 -21.921755 0.000000 0.029301 0.238635 -1.560798 0.002608 0.191599 -0.144247 0.000000 0.000000 3.693623 -77.672522 4.629378 -0.240681 0.000104 0.000864 4.516076 -17.663846 27.439669 -0.000000 0.000000 0.000000 1.864182 -0.000001 0.000076 -0.000000 0.000000 0.000000 1.864183 0.000000 -0.000000 0.090642 -0.000000 -0.002950 4.507708 7.209430 -0.047918 0.016922 -0.000000 -0.322884 -1.800053 3.938653 -0.032505 -5.322004 -6.265087 11.884004 -18.086643 48.431802 39.068156 -0.090642 0.000000 0.002950 -4.873792 1.139657 0.303921 -0.017084 -0.000000 -0.325982 18.572097 -6.288655 0.047469 -7.739464 10.513948 -18.924262 -26.282848 -51.170729 -35.235221 
0.060753 -0.020582 0.675408 -0.000000 0.000000 -5.824148 0.000000 0.000000 -0.000000 -6.786279 3.895064 0.436595 9.990379 -0.367954 -2.998063 -0.000000 0.029301 0.238635 17.464676 0.823966 4.432394 0.000000 0.003110 0.178174 1.598545 -0.000000 -0.000000 -0.000000 0.029301 0.238636 -1.626460 0.002833 0.199622 0.144247 0.000000 -0.000000 23.081263 80.073033 -27.336027 0.241736 0.000104 0.000864 2.123350 11.334723 -20.272329 -0.000000 0.029301 0.238636 -1.573047 0.002650 0.193114 -0.144247 0.000000 -0.000000 2.617588 -77.027588 3.332810 -0.240681 0.000104 0.000864 5.031049 -18.856933 28.568248 0.000000 -0.000000 0.000000 1.885621 -0.000001 0.000035 0.000000 -0.000000 0.000000 1.885622 0.000000 -0.000000 0.090641 0.000000 -0.002984 4.431863 7.056937 -0.041165 0.016922 0.000000 -0.322884 -1.873825 3.959306 -0.033498 -5.197076 -6.261978 11.936890 -18.300705 48.708388 39.770825 -0.090641 -0.000000 0.002984 -5.591241 1.032343 0.343506 -0.017084 -0.000000 -0.325982 20.065994 -6.430732 0.076653 -7.758747 10.181110 -18.283983 -26.650534 -51.257158 -34.937046 
0.057820 -0.018760 0.675630 -0.000000 0.000000 -5.967517 0.000000 0.000000 -0.000000 -6.597295 4.093048 0.451969 9.990499 -0.365617 -2.979165 0.000000 0.029301 0.238635 17.445519 0.997628 5.078255 0.000000 0.003110 0.178174 1.510816 -0.000000 0.000002 0.000000 0.029301 0.238635 -1.691431 0.003066 0.207633 0.144247 0.000000 0.000000 23.861725 79.913664 -28.324180 0.241736 0.000104 0.000864 1.730308 10.091388 -18.565766 0.000000 0.029301 0.238635 -1.637970 0.002875 0.201079 -0.144246 0.000000 0.000000 1.558251 -76.277340 2.030396 -0.240681 0.000104 0.000864 5.657453 -20.117721 30.039937 0.000000 0.000000 0.000000 1.921866 -0.000000 -0.000009 0.000000 0.000000 0.000000 1.921867 -0.000000 0.000000 0.090639 0.000000 -0.003041 4.292398 6.771108 -0.029079 0.016922 0.000000 -0.322884 -1.825983 4.117831 -0.030109 -4.783445 -6.213011 12.033773 -18.516773 48.933524 40.280385 -0.090639 -0.000000 0.003041 -6.341523 0.759060 0.374604 -0.017084 -0.000000 -0.325982 21.723775 -6.232379 0.044843 -8.030795 9.792770 -17.393971 -27.249965 -51.424614 -34.564176 
0.053906 -0.016796 0.675626 -0.000000 0.000000 -6.110089 0.000000 -0.000000 0.000000 -6.387178 4.321060 0.469149 9.991736 -0.340655 -2.775571 -0.000000 0.029301 0.238635 17.305913 1.091664 5.661375 0.000000 0.003110 0.178174 1.526998 -0.000001 -0.000002 -0.000000 0.029301 0.238636 -1.844123 0.003643 0.226396 0.144247 0.000000 -0.000000 24.358748 79.648612 -29.035336 0.241736 0.000104 0.000864 1.385138 8.908173 -16.833216 -0.000000 0.029301 0.238636 -1.790666 0.003436 0.219828 -0.144247 0.000000 0.000000 0.346707 -75.429939 0.496917 -0.240681 0.000104 0.000864 6.381413 -21.351306 31.846450 0.000000 0.000000 0.000000 1.994286 0.000001 -0.000034 0.000000 -0.000000 0.000000 1.994324 -0.000000 0.000000 0.090635 0.000000 -0.003156 4.226198 6.390544 -0.014495 0.016922 -0.000000 -0.322884 -1.928402 4.260885 -0.029387 -3.972639 -6.065828 12.119368 -18.716101 49.187478 40.961478 -0.090635 0.000000 0.003156 -6.935898 0.383061 0.387086 -0.017084 -0.000000 -0.325982 23.226029 -5.680776 -0.065946 -8.457221 9.237757 -16.114088 -27.468458 -51.365499 -33.859372 
0.049670 -0.015168 0.675360 -0.000000 0.000000 -6.092887 0.000000 0.000000 -0.000000 -6.201169 4.502942 0.481515 9.993380 -0.306231 -2.494738 -0.000000 0.029301 0.238635 17.178061 1.083622 5.968785 0.000000 0.003110 0.178174 1.627380 -0.000000 -0.000002 -0.000000 0.029301 0.238636 -1.998872 0.004281 0.245359 0.144247 -0.000000 -0.000000 24.251567 79.297574 -29.080903 0.241736 0.000104 0.000864 1.120827 7.955424 -15.224901 -0.000000 0.029301 0.238636 -1.945459 0.004053 0.238822 -0.144246 0.000000 -0.000000 -1.100275 -74.658694 -1.390533 -0.240681 0.000104 0.000864 7.107953 -22.420318 33.695133 0.000000 -0.000000 0.000000 2.100280 -0.000001 0.000030 0.000000 -0.000000 0.000000 2.100282 -0.000000 0.000000 0.090629 0.000000 -0.003324 4.309298 5.984437 0.000588 0.016922 0.000000 -0.322884 -2.320987 4.285516 -0.034870 -2.961956 -5.806835 12.064399 -18.865341 49.491083 41.978056 -0.090629 0.000000 0.003324 -7.190808 0.149280 0.386702 -0.017084 -0.000000 -0.325982 24.296443 -4.891142 -0.239773 -9.187670 8.295564 -13.976310 -26.934933 -50.926874 -32.888966 
0.045928 -0.013978 0.674978 -0.000000 0.000000 -5.763144 -0.000000 -0.000000 0.000000 -6.070920 4.540084 0.480271 9.994069 -0.289064 -2.354379 -0.000000 0.029301 0.238635 17.226562 1.092643 6.117422 -0.000000 0.003110 0.178174 1.696469 -0.000001 -0.000000 -0.000000 0.029301 0.238636 -1.994048 0.004260 0.244780 0.144247 0.000000 0.000000 23.058391 78.881868 -27.865389 0.241736 0.000104 0.000864 0.961234 7.380181 -14.027556 -0.000000 0.029301 0.238635 -1.940590 0.004034 0.238194 -0.144247 0.000000 0.000000 -2.591135 -74.257598 -3.365792 -0.240681 0.000104 0.000864 7.672731 -23.105584 35.224040 0.000000 -0.000000 0.000000 2.207979 0.000001 -0.000029 0.000000 -0.000000 0.000000 2.208019 -0.000000 0.000000 0.090623 0.000000 -0.003494 4.445086 5.598663 0.015656 0.016922 0.000000 -0.322884 -2.798352 4.256364 -0.042758 -2.203044 -5.542111 11.864725 -18.995579 49.792694 43.055644 -0.090623 0.000000 0.003494 -7.061488 0.213864 0.383703 -0.017084 -0.000000 -0.325982 24.845045 -3.861071 -0.472875 -10.681023 6.837179 -10.611702 -26.153850 -50.428827 -32.210253 
